<mxfile host="Electron" modified="2025-03-25T23:24:51.862Z" agent="Mozilla/5.0 (Windows NT 10.0; Win64; x64) AppleWebKit/537.36 (KHTML, like Gecko) draw.io/23.1.5 Chrome/120.0.6099.109 Electron/28.1.0 Safari/537.36" etag="cKsN9db6dvxp0Aikg_NM" version="23.1.5" type="device">
  <diagram name="Diagrama de Clases" id="aSMXr8JhXDBv6yPQDnmh">
    <mxGraphModel dx="1120" dy="540" grid="1" gridSize="10" guides="1" tooltips="1" connect="1" arrows="1" fold="1" page="1" pageScale="1" pageWidth="827" pageHeight="1169" math="0" shadow="0">
      <root>
        <mxCell id="0" />
        <mxCell id="1" parent="0" />
        <mxCell id="8ItPL0YZ83ciC4C8z_7W-5" value="Cancion" style="swimlane;fontStyle=1;align=center;verticalAlign=top;childLayout=stackLayout;horizontal=1;startSize=26;horizontalStack=0;resizeParent=1;resizeParentMax=0;resizeLast=0;collapsible=1;marginBottom=0;whiteSpace=wrap;html=1;" parent="1" vertex="1">
          <mxGeometry x="40" y="160" width="210" height="250" as="geometry" />
        </mxCell>
        <mxCell id="8ItPL0YZ83ciC4C8z_7W-6" value="- titulo: String&lt;br&gt;- artista: String&lt;br&gt;- duracion: float&lt;br&gt;- genero: String" style="text;strokeColor=none;fillColor=none;align=left;verticalAlign=top;spacingLeft=4;spacingRight=4;overflow=hidden;rotatable=0;points=[[0,0.5],[1,0.5]];portConstraint=eastwest;whiteSpace=wrap;html=1;" parent="8ItPL0YZ83ciC4C8z_7W-5" vertex="1">
          <mxGeometry y="26" width="210" height="84" as="geometry" />
        </mxCell>
        <mxCell id="8ItPL0YZ83ciC4C8z_7W-7" value="" style="line;strokeWidth=1;fillColor=none;align=left;verticalAlign=middle;spacingTop=-1;spacingLeft=3;spacingRight=3;rotatable=0;labelPosition=right;points=[];portConstraint=eastwest;strokeColor=inherit;" parent="8ItPL0YZ83ciC4C8z_7W-5" vertex="1">
          <mxGeometry y="110" width="210" height="8" as="geometry" />
        </mxCell>
        <mxCell id="8ItPL0YZ83ciC4C8z_7W-8" value="+ Cancion()&lt;br&gt;+ cargarDatos(): Cancion&lt;br&gt;+ cargarTitulo(): String&lt;br&gt;+ cargarArtista(): String&lt;br&gt;+ cargarDuracion(): float&lt;br&gt;+ cargarGenero(): String&lt;br&gt;+ actualizarDatos(): void&lt;div&gt;+ mostrarDatos(): void&lt;/div&gt;" style="text;strokeColor=none;fillColor=none;align=left;verticalAlign=top;spacingLeft=4;spacingRight=4;overflow=hidden;rotatable=0;points=[[0,0.5],[1,0.5]];portConstraint=eastwest;whiteSpace=wrap;html=1;" parent="8ItPL0YZ83ciC4C8z_7W-5" vertex="1">
          <mxGeometry y="118" width="210" height="132" as="geometry" />
        </mxCell>
        <mxCell id="8ItPL0YZ83ciC4C8z_7W-17" value="" style="endArrow=none;dashed=1;html=1;rounded=0;fontStyle=1;strokeWidth=3;dashPattern=1 4;fontSize=5;" parent="1" edge="1">
          <mxGeometry width="50" height="50" relative="1" as="geometry">
            <mxPoint x="40" y="80" as="sourcePoint" />
            <mxPoint x="800" y="80" as="targetPoint" />
          </mxGeometry>
        </mxCell>
        <mxCell id="8ItPL0YZ83ciC4C8z_7W-19" value="Diagrama de Clases" style="text;html=1;align=left;verticalAlign=middle;whiteSpace=wrap;rounded=0;fontSize=30;fontStyle=1;fontFamily=Helvetica;" parent="1" vertex="1">
          <mxGeometry x="40" y="30" width="410" height="30" as="geometry" />
        </mxCell>
        <mxCell id="8ItPL0YZ83ciC4C8z_7W-21" value="NodoSimple" style="swimlane;fontStyle=1;align=center;verticalAlign=top;childLayout=stackLayout;horizontal=1;startSize=26;horizontalStack=0;resizeParent=1;resizeParentMax=0;resizeLast=0;collapsible=1;marginBottom=0;whiteSpace=wrap;html=1;" parent="1" vertex="1">
          <mxGeometry x="590" y="160" width="170" height="110" as="geometry" />
        </mxCell>
        <mxCell id="8ItPL0YZ83ciC4C8z_7W-22" value="- dato: Cancion&lt;br&gt;- siguiente: NodoSimple" style="text;strokeColor=none;fillColor=none;align=left;verticalAlign=top;spacingLeft=4;spacingRight=4;overflow=hidden;rotatable=0;points=[[0,0.5],[1,0.5]];portConstraint=eastwest;whiteSpace=wrap;html=1;" parent="8ItPL0YZ83ciC4C8z_7W-21" vertex="1">
          <mxGeometry y="26" width="170" height="44" as="geometry" />
        </mxCell>
        <mxCell id="8ItPL0YZ83ciC4C8z_7W-23" value="" style="line;strokeWidth=1;fillColor=none;align=left;verticalAlign=middle;spacingTop=-1;spacingLeft=3;spacingRight=3;rotatable=0;labelPosition=right;points=[];portConstraint=eastwest;strokeColor=inherit;" parent="8ItPL0YZ83ciC4C8z_7W-21" vertex="1">
          <mxGeometry y="70" width="170" height="8" as="geometry" />
        </mxCell>
        <mxCell id="8ItPL0YZ83ciC4C8z_7W-24" value="+ NodoSimple(Persona dato)" style="text;strokeColor=none;fillColor=none;align=left;verticalAlign=top;spacingLeft=4;spacingRight=4;overflow=hidden;rotatable=0;points=[[0,0.5],[1,0.5]];portConstraint=eastwest;whiteSpace=wrap;html=1;" parent="8ItPL0YZ83ciC4C8z_7W-21" vertex="1">
          <mxGeometry y="78" width="170" height="32" as="geometry" />
        </mxCell>
        <mxCell id="8ItPL0YZ83ciC4C8z_7W-39" value="1" style="endArrow=open;html=1;endSize=12;startArrow=diamondThin;startSize=14;startFill=0;edgeStyle=elbowEdgeStyle;align=left;verticalAlign=bottom;rounded=0;exitX=1;exitY=0.5;exitDx=0;exitDy=0;entryX=1;entryY=0.088;entryDx=0;entryDy=0;entryPerimeter=0;" parent="8ItPL0YZ83ciC4C8z_7W-21" source="8ItPL0YZ83ciC4C8z_7W-22" target="8ItPL0YZ83ciC4C8z_7W-21" edge="1">
          <mxGeometry x="-1" y="3" relative="1" as="geometry">
            <mxPoint x="-80" y="100" as="sourcePoint" />
            <mxPoint x="80" y="100" as="targetPoint" />
            <Array as="points">
              <mxPoint x="210" y="30" />
            </Array>
          </mxGeometry>
        </mxCell>
        <mxCell id="8ItPL0YZ83ciC4C8z_7W-25" value="ListaSimple" style="swimlane;fontStyle=1;align=center;verticalAlign=top;childLayout=stackLayout;horizontal=1;startSize=26;horizontalStack=0;resizeParent=1;resizeParentMax=0;resizeLast=0;collapsible=1;marginBottom=0;whiteSpace=wrap;html=1;" parent="1" vertex="1">
          <mxGeometry x="470" y="320" width="300" height="210" as="geometry" />
        </mxCell>
        <mxCell id="8ItPL0YZ83ciC4C8z_7W-26" value="# primero: NodoSimple" style="text;strokeColor=none;fillColor=none;align=left;verticalAlign=top;spacingLeft=4;spacingRight=4;overflow=hidden;rotatable=0;points=[[0,0.5],[1,0.5]];portConstraint=eastwest;whiteSpace=wrap;html=1;" parent="8ItPL0YZ83ciC4C8z_7W-25" vertex="1">
          <mxGeometry y="26" width="300" height="26" as="geometry" />
        </mxCell>
        <mxCell id="8ItPL0YZ83ciC4C8z_7W-27" value="" style="line;strokeWidth=1;fillColor=none;align=left;verticalAlign=middle;spacingTop=-1;spacingLeft=3;spacingRight=3;rotatable=0;labelPosition=right;points=[];portConstraint=eastwest;strokeColor=inherit;" parent="8ItPL0YZ83ciC4C8z_7W-25" vertex="1">
          <mxGeometry y="52" width="300" height="8" as="geometry" />
        </mxCell>
        <mxCell id="8ItPL0YZ83ciC4C8z_7W-28" value="+ NodoSimple()&lt;br&gt;+ insertarFrente(Cancion cancion): void&lt;br&gt;+ insertarFrente(NodoSimple nuevoNodo): void&lt;br&gt;+ mostrar(): void&lt;br&gt;+ buscar(Cancion buscada): NodoSimple&lt;br&gt;+ eliminar(Cancion buscada): NodoSimple&lt;div&gt;+ desenganchar(NodoSimple actual): NodoSimple&lt;/div&gt;" style="text;strokeColor=none;fillColor=none;align=left;verticalAlign=top;spacingLeft=4;spacingRight=4;overflow=hidden;rotatable=0;points=[[0,0.5],[1,0.5]];portConstraint=eastwest;whiteSpace=wrap;html=1;" parent="8ItPL0YZ83ciC4C8z_7W-25" vertex="1">
          <mxGeometry y="60" width="300" height="150" as="geometry" />
        </mxCell>
        <mxCell id="8ItPL0YZ83ciC4C8z_7W-29" value="AplicacionListasSimples" style="swimlane;fontStyle=1;align=center;verticalAlign=top;childLayout=stackLayout;horizontal=1;startSize=26;horizontalStack=0;resizeParent=1;resizeParentMax=0;resizeLast=0;collapsible=1;marginBottom=0;whiteSpace=wrap;html=1;" parent="1" vertex="1">
          <mxGeometry x="40" y="480" width="210" height="200" as="geometry" />
        </mxCell>
        <mxCell id="8ItPL0YZ83ciC4C8z_7W-30" value="- listaPersonas: ListaSimple" style="text;strokeColor=none;fillColor=none;align=left;verticalAlign=top;spacingLeft=4;spacingRight=4;overflow=hidden;rotatable=0;points=[[0,0.5],[1,0.5]];portConstraint=eastwest;whiteSpace=wrap;html=1;" parent="8ItPL0YZ83ciC4C8z_7W-29" vertex="1">
          <mxGeometry y="26" width="210" height="26" as="geometry" />
        </mxCell>
        <mxCell id="8ItPL0YZ83ciC4C8z_7W-31" value="" style="line;strokeWidth=1;fillColor=none;align=left;verticalAlign=middle;spacingTop=-1;spacingLeft=3;spacingRight=3;rotatable=0;labelPosition=right;points=[];portConstraint=eastwest;strokeColor=inherit;" parent="8ItPL0YZ83ciC4C8z_7W-29" vertex="1">
          <mxGeometry y="52" width="210" height="8" as="geometry" />
        </mxCell>
        <mxCell id="8ItPL0YZ83ciC4C8z_7W-32" value="+ AplicacionListasSimples()&lt;br&gt;inicializar(): void&lt;br&gt;menu(): void&lt;br&gt;mostrarOpciones(): void&lt;br&gt;cargarNuevaCancion(): void&lt;br&gt;void actualizarCancion(): void&lt;div&gt;eliminarCanciones(): void&lt;/div&gt;&lt;div&gt;listarCancionesMenoresQue5: void&lt;/div&gt;" style="text;strokeColor=none;fillColor=none;align=left;verticalAlign=top;spacingLeft=4;spacingRight=4;overflow=hidden;rotatable=0;points=[[0,0.5],[1,0.5]];portConstraint=eastwest;whiteSpace=wrap;html=1;" parent="8ItPL0YZ83ciC4C8z_7W-29" vertex="1">
          <mxGeometry y="60" width="210" height="140" as="geometry" />
        </mxCell>
        <mxCell id="8ItPL0YZ83ciC4C8z_7W-33" value="Use" style="endArrow=open;endSize=12;dashed=1;html=1;rounded=0;exitX=0.5;exitY=0;exitDx=0;exitDy=0;" parent="1" source="8ItPL0YZ83ciC4C8z_7W-29" target="8ItPL0YZ83ciC4C8z_7W-8" edge="1">
          <mxGeometry width="160" relative="1" as="geometry">
            <mxPoint x="470" y="420" as="sourcePoint" />
            <mxPoint x="630" y="420" as="targetPoint" />
          </mxGeometry>
        </mxCell>
        <mxCell id="8ItPL0YZ83ciC4C8z_7W-34" value="Use" style="endArrow=open;endSize=12;dashed=1;html=1;rounded=0;exitX=1;exitY=0.5;exitDx=0;exitDy=0;entryX=-0.01;entryY=0.087;entryDx=0;entryDy=0;entryPerimeter=0;edgeStyle=orthogonalEdgeStyle;" parent="1" source="8ItPL0YZ83ciC4C8z_7W-30" target="8ItPL0YZ83ciC4C8z_7W-28" edge="1">
          <mxGeometry width="160" relative="1" as="geometry">
            <mxPoint x="470" y="420" as="sourcePoint" />
            <mxPoint x="630" y="420" as="targetPoint" />
          </mxGeometry>
        </mxCell>
        <mxCell id="8ItPL0YZ83ciC4C8z_7W-36" value="1" style="endArrow=open;html=1;endSize=12;startArrow=diamondThin;startSize=14;startFill=0;edgeStyle=orthogonalEdgeStyle;align=left;verticalAlign=bottom;rounded=0;exitX=1.009;exitY=0.072;exitDx=0;exitDy=0;exitPerimeter=0;" parent="1" edge="1">
          <mxGeometry x="-1" y="3" relative="1" as="geometry">
            <mxPoint x="249.9999999999999" y="505.4" as="sourcePoint" />
            <mxPoint x="468.11" y="370" as="targetPoint" />
            <Array as="points">
              <mxPoint x="328.11" y="505" />
              <mxPoint x="328.11" y="370" />
            </Array>
          </mxGeometry>
        </mxCell>
        <mxCell id="8ItPL0YZ83ciC4C8z_7W-37" value="0..*" style="endArrow=open;html=1;endSize=12;startArrow=diamondThin;startSize=14;startFill=1;edgeStyle=elbowEdgeStyle;align=left;verticalAlign=bottom;rounded=0;exitX=-0.005;exitY=0.208;exitDx=0;exitDy=0;exitPerimeter=0;entryX=-0.012;entryY=0.031;entryDx=0;entryDy=0;entryPerimeter=0;" parent="1" edge="1">
          <mxGeometry x="-0.865" y="-1" relative="1" as="geometry">
            <mxPoint x="470.54" y="351.408" as="sourcePoint" />
            <mxPoint x="590" y="238.99200000000008" as="targetPoint" />
            <Array as="points">
              <mxPoint x="402.04" y="290" />
            </Array>
            <mxPoint as="offset" />
          </mxGeometry>
        </mxCell>
        <mxCell id="8ItPL0YZ83ciC4C8z_7W-38" value="Use" style="endArrow=open;endSize=12;dashed=1;html=1;rounded=0;exitX=0;exitY=0.043;exitDx=0;exitDy=0;entryX=-0.012;entryY=0.365;entryDx=0;entryDy=0;entryPerimeter=0;exitPerimeter=0;edgeStyle=elbowEdgeStyle;" parent="1" source="8ItPL0YZ83ciC4C8z_7W-25" target="8ItPL0YZ83ciC4C8z_7W-24" edge="1">
          <mxGeometry width="160" relative="1" as="geometry">
            <mxPoint x="550" y="270" as="sourcePoint" />
            <mxPoint x="710" y="270" as="targetPoint" />
            <Array as="points">
              <mxPoint x="410" y="270" />
            </Array>
          </mxGeometry>
        </mxCell>
        <mxCell id="8ItPL0YZ83ciC4C8z_7W-40" value="contiene" style="endArrow=open;html=1;endSize=12;startArrow=diamondThin;startSize=14;startFill=0;edgeStyle=orthogonalEdgeStyle;rounded=0;entryX=0.997;entryY=0.171;entryDx=0;entryDy=0;entryPerimeter=0;exitX=0;exitY=0.311;exitDx=0;exitDy=0;exitPerimeter=0;" parent="1" source="8ItPL0YZ83ciC4C8z_7W-22" target="8ItPL0YZ83ciC4C8z_7W-6" edge="1">
          <mxGeometry relative="1" as="geometry">
            <mxPoint x="320" y="280" as="sourcePoint" />
            <mxPoint x="480" y="280" as="targetPoint" />
          </mxGeometry>
        </mxCell>
        <mxCell id="8ItPL0YZ83ciC4C8z_7W-41" value="1" style="edgeLabel;resizable=0;html=1;align=left;verticalAlign=top;" parent="8ItPL0YZ83ciC4C8z_7W-40" connectable="0" vertex="1">
          <mxGeometry x="-1" relative="1" as="geometry">
            <mxPoint x="-10" as="offset" />
          </mxGeometry>
        </mxCell>
        <mxCell id="8ItPL0YZ83ciC4C8z_7W-42" value="1" style="edgeLabel;resizable=0;html=1;align=right;verticalAlign=top;" parent="8ItPL0YZ83ciC4C8z_7W-40" connectable="0" vertex="1">
          <mxGeometry x="1" relative="1" as="geometry">
            <mxPoint x="11" as="offset" />
          </mxGeometry>
        </mxCell>
        <mxCell id="8ItPL0YZ83ciC4C8z_7W-44" value="Use" style="endArrow=open;endSize=12;dashed=1;html=1;rounded=0;entryX=1.019;entryY=0.076;entryDx=0;entryDy=0;entryPerimeter=0;exitX=0.012;exitY=0.161;exitDx=0;exitDy=0;exitPerimeter=0;" parent="1" source="8ItPL0YZ83ciC4C8z_7W-21" target="8ItPL0YZ83ciC4C8z_7W-5" edge="1">
          <mxGeometry width="160" relative="1" as="geometry">
            <mxPoint x="330" y="280" as="sourcePoint" />
            <mxPoint x="490" y="280" as="targetPoint" />
          </mxGeometry>
        </mxCell>
      </root>
    </mxGraphModel>
  </diagram>
</mxfile>
